<svg width="14" height="14" fill="none" xmlns="http://www.w3.org/2000/svg"><path d="M6.561 13.462a6.557 6.557 0 1 0 0-13.114 6.557 6.557 0 0 0 0 13.114Z" fill="#000"/><path d="M2.815 6.762S6.063 5.38 7.19 4.893c.432-.194 1.896-.817 1.896-.817s.676-.273.62.39c-.02.272-.17 1.225-.32 2.257l-.47 3.055s-.037.448-.356.526c-.319.078-.845-.273-.938-.35-.076-.059-1.409-.935-1.897-1.363-.131-.117-.281-.35.02-.623a72.904 72.904 0 0 0 1.97-1.946c.226-.234.451-.778-.488-.117-1.333.954-2.647 1.85-2.647 1.85s-.3.194-.864.019a38.038 38.038 0 0 1-1.22-.41s-.45-.291.32-.602Z" fill="#fff"/></svg>