<svg width="15" height="10" viewBox="0 0 15 10" fill="none" xmlns="http://www.w3.org/2000/svg">
<path d="M14.1752 1.75648C14.0185 1.16739 13.5549 0.702659 12.9652 0.543387C11.8988 0.257568 7.62025 0.257568 7.62025 0.257568C7.62025 0.257568 3.34388 0.257568 2.27534 0.543387C1.68775 0.700478 1.2242 1.1652 1.06534 1.75648C0.780245 2.82557 0.780245 5.05757 0.780245 5.05757C0.780245 5.05757 0.780245 7.28957 1.06534 8.35866C1.22203 8.94775 1.68557 9.41248 2.27534 9.57175C3.34388 9.85757 7.62025 9.85757 7.62025 9.85757C7.62025 9.85757 11.8988 9.85757 12.9652 9.57175C13.5527 9.41466 14.0163 8.94993 14.1752 8.35866C14.4602 7.28957 14.4602 5.05757 14.4602 5.05757C14.4602 5.05757 14.4602 2.82557 14.1752 1.75648Z" fill="black"/>
<path d="M6.25355 7.11502L9.80739 5.05757L6.25355 3.00011V7.11502Z" fill="white"/>
</svg>
